<svg xmlns="http://www.w3.org/2000/svg" viewBox="0 0 48 48" fill="none">
  <!-- Flame icon only - for favicon/small contexts -->
  <g transform="translate(8, 2)">
    <path d="M16 0C16 0 8 14 8 22C8 28.6 11.5 33 16 33C20.5 33 24 28.6 24 22C24 14 16 0 16 0Z" fill="#C4873B" opacity="0.85"/>
    <path d="M16 10C16 10 12.5 18 12.5 23C12.5 26.3 14 28.5 16 28.5C18 28.5 19.5 26.3 19.5 23C19.5 18 16 10 16 10Z" fill="#E8B96E" opacity="0.9"/>
    <path d="M16 18C16 18 14.5 22 14.5 24.5C14.5 26.3 15.1 27.5 16 27.5C16.9 27.5 17.5 26.3 17.5 24.5C17.5 22 16 18 16 18Z" fill="#FFF3E0" opacity="0.95"/>
  </g>
  <!-- L letter subtly at the base -->
  <text x="16" y="46" font-family="'Cormorant Garamond', serif" font-size="10" fill="#3D2E1F" font-weight="300" letter-spacing="0.1em">L</text>
</svg>
